<svg id="Layer_1" xmlns="http://www.w3.org/2000/svg" width="1344" height="960" viewBox="0 0 1344 960"><path fill="#ED1C24" d="M477.412 320c0-88-72-160-160-160s-160 72-160 160 72 160 160 160c36 0 69-12 96-32l-1 178c-30 9-62 14-95 14-177 0-320-143-320-320s143-320 320-320 320 143 320 320v640h-160V320z"/><path fill="#00A651" d="M864 640c0 88 72 160 160 160s160-72 160-160-72-160-160-160c-36 0-69 12-96 32l1-178c30-9 62-14 95-14 177 0 320 143 320 320s-143 320-320 320-320-143-320-320V0h160v640z"/></svg>